# xmcd
#
# Track frame offsets: 
#        150
#        17709
#        31931
#        39532
#        49900
#        67925
#        74389
#        86967
#        97365
#        134171
#        168058
#        218317
#        234638
#        269700
#        298961
#
# Disc length: 4279 seconds
#
# Revision: 1
# Processed by: cddbd v1.5.2PL0 Copyright (c) Steve Scherf et al.
# Submitted via: ExactAudioCopyFreeDBPlugin 1.0
#
DISCID=e710b50f
DTITLE=Борис Гребенщиков и Александр Ляпин - Песни для друга
DYEAR=1900
DGENRE=Blues
TTITLE0=Борис Гребенщиков - Сталь
TTITLE1=Борис Гребенщиков - Иванов
TTITLE2=Борис Гребенщиков - Моей звезде
TTITLE3=Борис Гребенщиков - Встань у реки
TTITLE4=Борис Гребенщиков - Железнодорожная вода
TTITLE5=Борис Гребенщиков - Перекресток
TTITLE6=Борис Гребенщиков - Кардиограмма
TTITLE7=Борис Гребенщиков - Чай
TTITLE8=Александр Ляпин и Lia Pin's Blues - Cocain Blues
TTITLE9=Александр Ляпин и Lia Pin's Blues - Before U Accuse Me
TTITLE10=Александр Ляпин и Lia Pin's Blues - To E.C.
TTITLE11=Александр Ляпин и Lia Pin's Blues - No Rap
TTITLE12=Александр Ляпин и Lia Pin's Blues - Gangies
TTITLE13=Александр Ляпин и Lia Pin's Blues - Be Blues
TTITLE14=Александр Ляпин и Lia Pin's Blues - Jazzy Girl
EXTD=Êîíöåðò 29 èþíÿ 2001 ãîäà â êëóáå "Ñàðòàê" (ÑÏá)
EXTT0=
EXTT1=
EXTT2=
EXTT3=
EXTT4=
EXTT5=
EXTT6=
EXTT7=
EXTT8=
EXTT9=
EXTT10=
EXTT11=
EXTT12=
EXTT13=
EXTT14=
PLAYORDER=
